<svg xmlns="http://www.w3.org/2000/svg" xmlns:xlink="http://www.w3.org/1999/xlink" width="300" zoomAndPan="magnify" viewBox="0 0 224.87999 60.75" height="81" preserveAspectRatio="xMidYMid meet" version="1.0"><defs><g/><clipPath id="95b0d77b6d"><path d="M 28.570312 3.792969 L 83.09375 3.792969 L 83.09375 56.824219 L 28.570312 56.824219 Z M 28.570312 3.792969 " clip-rule="nonzero"/></clipPath></defs><path fill="#3871c1" d="M 69.875 22.855469 L 61.535156 22.855469 L 61.535156 14.472656 C 61.535156 10.855469 58.621094 7.925781 55.023438 7.925781 C 51.425781 7.925781 48.511719 10.855469 48.511719 14.472656 L 48.511719 19.792969 C 48.511719 20.574219 48.566406 21.34375 48.675781 22.097656 C 51.960938 22.757812 54.984375 24.375 57.410156 26.8125 C 59.875 29.289062 61.496094 32.390625 62.132812 35.761719 C 62.929688 35.882812 63.75 35.949219 64.582031 35.949219 L 69.875 35.949219 C 73.472656 35.949219 76.386719 33.015625 76.386719 29.402344 C 76.386719 25.785156 73.472656 22.855469 69.875 22.855469 " fill-opacity="1" fill-rule="nonzero"/><path fill="#4ac0d8" d="M 48.320312 35.949219 L 39.984375 35.949219 C 36.386719 35.949219 33.472656 33.015625 33.472656 29.402344 C 33.472656 25.785156 36.386719 22.855469 39.984375 22.855469 L 45.277344 22.855469 C 54.152344 22.855469 61.347656 30.085938 61.347656 39.007812 L 61.347656 44.328125 C 61.347656 47.945312 58.433594 50.875 54.835938 50.875 C 51.238281 50.875 48.320312 47.945312 48.320312 44.328125 L 48.320312 35.949219 " fill-opacity="1" fill-rule="nonzero"/><g clip-path="url(#95b0d77b6d)"><path fill="#1b4979" d="M 83.09375 29.433594 C 83.09375 29.433594 83.089844 29.554688 83.082031 29.78125 C 83.078125 29.835938 83.078125 29.902344 83.074219 29.972656 C 83.074219 30.007812 83.074219 30.046875 83.070312 30.082031 C 83.066406 30.128906 83.066406 30.171875 83.0625 30.222656 C 83.050781 30.414062 83.042969 30.644531 83.023438 30.894531 C 82.984375 31.378906 82.933594 31.980469 82.835938 32.679688 C 82.742188 33.378906 82.609375 34.183594 82.410156 35.070312 C 82.210938 35.957031 81.945312 36.929688 81.59375 37.960938 C 81.238281 38.996094 80.804688 40.09375 80.25 41.226562 C 79.972656 41.792969 79.667969 42.363281 79.335938 42.941406 C 79.003906 43.523438 78.636719 44.101562 78.242188 44.683594 C 78.140625 44.828125 78.046875 44.976562 77.941406 45.121094 C 77.835938 45.265625 77.730469 45.410156 77.625 45.554688 C 77.410156 45.84375 77.191406 46.136719 76.960938 46.421875 C 76.5 46.996094 76.007812 47.566406 75.484375 48.128906 C 74.429688 49.246094 73.242188 50.320312 71.925781 51.3125 C 70.609375 52.304688 69.15625 53.207031 67.59375 53.980469 C 66.03125 54.753906 64.351562 55.398438 62.589844 55.875 C 60.828125 56.347656 58.984375 56.652344 57.101562 56.761719 C 56.867188 56.773438 56.632812 56.78125 56.394531 56.792969 C 56.160156 56.800781 55.921875 56.800781 55.6875 56.808594 C 55.449219 56.808594 55.210938 56.804688 54.972656 56.800781 L 54.929688 56.800781 C 54.871094 56.800781 54.886719 56.800781 54.863281 56.800781 L 54.613281 56.789062 C 54.503906 56.789062 54.390625 56.785156 54.28125 56.78125 C 54.035156 56.765625 53.789062 56.75 53.542969 56.738281 C 53.304688 56.71875 53.066406 56.695312 52.828125 56.675781 C 52.589844 56.648438 52.347656 56.621094 52.109375 56.597656 C 51.871094 56.5625 51.632812 56.53125 51.394531 56.496094 C 49.484375 56.203125 47.585938 55.703125 45.753906 54.996094 C 43.917969 54.289062 42.15625 53.367188 40.511719 52.269531 C 38.867188 51.171875 37.34375 49.882812 35.972656 48.453125 C 34.613281 47.019531 33.402344 45.441406 32.390625 43.757812 C 31.382812 42.070312 30.554688 40.289062 29.945312 38.453125 C 29.332031 36.617188 28.925781 34.734375 28.722656 32.855469 C 28.621094 31.917969 28.570312 30.980469 28.570312 30.050781 C 28.570312 29.816406 28.574219 29.582031 28.578125 29.347656 C 28.585938 29.121094 28.589844 28.902344 28.601562 28.675781 C 28.617188 28.441406 28.628906 28.207031 28.644531 27.976562 C 28.664062 27.75 28.683594 27.519531 28.703125 27.292969 C 28.886719 25.476562 29.253906 23.714844 29.777344 22.046875 C 30.296875 20.375 30.976562 18.800781 31.769531 17.34375 C 32.5625 15.890625 33.464844 14.550781 34.445312 13.347656 C 35.425781 12.144531 36.476562 11.074219 37.554688 10.128906 C 38.09375 9.660156 38.644531 9.222656 39.191406 8.816406 C 39.464844 8.613281 39.746094 8.421875 40.019531 8.230469 C 40.15625 8.136719 40.296875 8.046875 40.433594 7.953125 C 40.570312 7.863281 40.710938 7.777344 40.847656 7.691406 C 41.398438 7.347656 41.945312 7.03125 42.492188 6.746094 C 43.035156 6.460938 43.570312 6.199219 44.101562 5.96875 C 45.15625 5.5 46.175781 5.140625 47.128906 4.859375 C 48.085938 4.574219 48.976562 4.371094 49.785156 4.222656 C 50.597656 4.074219 51.328125 3.984375 51.964844 3.925781 C 52.597656 3.863281 53.140625 3.84375 53.582031 3.824219 C 53.800781 3.820312 53.996094 3.816406 54.164062 3.816406 C 54.332031 3.8125 54.472656 3.816406 54.585938 3.816406 C 54.8125 3.820312 54.929688 3.820312 54.929688 3.820312 C 54.929688 3.820312 54.8125 3.824219 54.585938 3.832031 C 54.472656 3.839844 54.332031 3.839844 54.164062 3.851562 C 53.996094 3.859375 53.804688 3.871094 53.585938 3.886719 C 53.148438 3.921875 52.609375 3.96875 51.980469 4.058594 C 51.351562 4.148438 50.628906 4.269531 49.832031 4.453125 C 49.039062 4.636719 48.164062 4.875 47.238281 5.199219 C 46.3125 5.523438 45.324219 5.917969 44.3125 6.425781 C 43.804688 6.675781 43.289062 6.953125 42.773438 7.257812 C 42.253906 7.558594 41.734375 7.894531 41.210938 8.253906 C 41.082031 8.34375 40.949219 8.433594 40.820312 8.527344 C 40.691406 8.621094 40.5625 8.714844 40.429688 8.8125 C 40.171875 9.007812 39.910156 9.207031 39.652344 9.417969 C 39.136719 9.835938 38.625 10.285156 38.125 10.761719 C 37.125 11.722656 36.160156 12.800781 35.273438 13.996094 C 34.382812 15.191406 33.578125 16.507812 32.886719 17.925781 C 32.195312 19.34375 31.625 20.867188 31.203125 22.460938 C 30.78125 24.054688 30.511719 25.726562 30.417969 27.429688 C 30.40625 27.644531 30.402344 27.855469 30.390625 28.070312 C 30.386719 28.285156 30.386719 28.492188 30.378906 28.703125 C 30.378906 28.921875 30.382812 29.148438 30.386719 29.371094 C 30.394531 29.582031 30.402344 29.796875 30.410156 30.007812 C 30.449219 30.871094 30.535156 31.738281 30.667969 32.601562 C 30.933594 34.332031 31.386719 36.046875 32.023438 37.699219 C 32.65625 39.355469 33.484375 40.945312 34.46875 42.429688 C 35.457031 43.914062 36.613281 45.289062 37.894531 46.523438 C 39.183594 47.75 40.597656 48.839844 42.105469 49.75 C 43.613281 50.660156 45.207031 51.402344 46.84375 51.949219 C 48.484375 52.496094 50.164062 52.855469 51.839844 53.035156 C 52.050781 53.058594 52.261719 53.074219 52.46875 53.09375 C 52.679688 53.109375 52.886719 53.121094 53.097656 53.136719 C 53.304688 53.144531 53.515625 53.152344 53.722656 53.160156 C 53.921875 53.164062 54.125 53.164062 54.324219 53.167969 C 54.4375 53.167969 54.546875 53.164062 54.660156 53.164062 L 54.828125 53.164062 L 54.910156 53.160156 C 54.914062 53.160156 54.960938 53.160156 54.929688 53.160156 L 54.96875 53.160156 C 55.175781 53.152344 55.378906 53.144531 55.585938 53.136719 C 55.792969 53.121094 55.996094 53.109375 56.199219 53.09375 C 56.40625 53.078125 56.609375 53.0625 56.8125 53.039062 C 58.433594 52.871094 60.003906 52.535156 61.488281 52.0625 C 62.976562 51.585938 64.375 50.976562 65.671875 50.257812 C 66.96875 49.539062 68.15625 48.722656 69.226562 47.835938 C 70.296875 46.953125 71.25 46.003906 72.085938 45.03125 C 72.503906 44.542969 72.890625 44.050781 73.253906 43.554688 C 73.4375 43.308594 73.605469 43.054688 73.773438 42.808594 C 73.855469 42.683594 73.9375 42.558594 74.019531 42.4375 C 74.097656 42.3125 74.171875 42.1875 74.25 42.0625 C 74.554688 41.566406 74.839844 41.074219 75.089844 40.582031 C 75.339844 40.09375 75.574219 39.609375 75.777344 39.132812 C 76.191406 38.183594 76.507812 37.265625 76.757812 36.410156 C 77.007812 35.550781 77.1875 34.75 77.316406 34.023438 C 77.445312 33.296875 77.519531 32.640625 77.574219 32.066406 C 77.628906 31.496094 77.644531 31.007812 77.660156 30.613281 C 77.660156 30.425781 77.664062 30.261719 77.667969 30.117188 C 77.667969 30.082031 77.667969 30.046875 77.667969 30.015625 C 77.667969 29.976562 77.667969 29.9375 77.667969 29.902344 C 77.664062 29.832031 77.664062 29.769531 77.664062 29.710938 C 77.660156 29.484375 77.660156 29.367188 77.660156 29.367188 C 77.644531 27.859375 78.851562 26.621094 80.351562 26.609375 C 81.851562 26.59375 83.078125 27.804688 83.09375 29.3125 C 83.09375 29.351562 83.09375 29.398438 83.09375 29.433594 " fill-opacity="1" fill-rule="nonzero"/></g><g fill="#194e84" fill-opacity="1"><g transform="translate(84.105987, 28.809525)"><g><path d="M 2.253906 0 L 13.90625 0 L 13.90625 -2.972656 L 5.402344 -2.972656 L 5.402344 -7.3125 L 13.324219 -7.3125 L 13.324219 -10.199219 L 5.402344 -10.199219 L 5.402344 -14.625 L 13.90625 -14.625 L 13.90625 -17.511719 L 2.253906 -17.511719 Z M 2.253906 0 "/></g></g></g><g fill="#194e84" fill-opacity="1"><g transform="translate(99.534442, 28.809525)"><g><path d="M 5.9375 0.246094 C 7.410156 0.246094 8.699219 -0.285156 9.59375 -1.449219 L 9.59375 0 L 12.667969 0 L 12.667969 -12.382812 L 9.59375 -12.382812 L 9.59375 -6.804688 C 9.59375 -3.222656 8.144531 -2.492188 6.730469 -2.492188 C 4.894531 -2.492188 4.488281 -3.730469 4.488281 -5.761719 L 4.488281 -12.382812 L 1.425781 -12.382812 L 1.425781 -5.863281 C 1.425781 -2.132812 2.8125 0.246094 5.9375 0.246094 Z M 5.9375 0.246094 "/></g></g></g><g fill="#194e84" fill-opacity="1"><g transform="translate(113.996295, 28.809525)"><g><path d="M 1.796875 0 L 4.722656 0 L 4.722656 -5.230469 C 4.722656 -8.378906 6.195312 -9.691406 7.609375 -9.691406 C 8.09375 -9.691406 8.550781 -9.542969 8.960938 -9.269531 L 10.335938 -11.75 C 9.742188 -12.355469 8.886719 -12.640625 8.070312 -12.640625 C 6.679688 -12.640625 5.28125 -11.800781 4.746094 -10.300781 L 4.746094 -12.382812 L 1.796875 -12.382812 Z M 1.796875 0 "/></g></g></g><g fill="#194e84" fill-opacity="1"><g transform="translate(124.096046, 28.809525)"><g><path d="M 6.976562 0.246094 C 10.808594 0.246094 13.324219 -2.714844 13.324219 -6.222656 C 13.324219 -9.71875 10.808594 -12.640625 6.976562 -12.640625 C 3.148438 -12.640625 0.632812 -9.71875 0.632812 -6.222656 C 0.632812 -2.714844 3.148438 0.246094 6.976562 0.246094 Z M 6.976562 -2.355469 C 4.699219 -2.355469 3.78125 -4.1875 3.78125 -6.222656 C 3.78125 -8.253906 4.699219 -10.027344 6.976562 -10.027344 C 9.269531 -10.027344 10.175781 -8.253906 10.175781 -6.222656 C 10.175781 -4.1875 9.269531 -2.355469 6.976562 -2.355469 Z M 6.976562 -2.355469 "/></g></g></g><g fill="#194e84" fill-opacity="1"><g transform="translate(138.074598, 28.809525)"><g><path d="M 2.253906 0 L 5.402344 0 L 5.402344 -7.3125 L 13.074219 -7.3125 L 13.074219 0 L 16.222656 0 L 16.222656 -17.511719 L 13.074219 -17.511719 L 13.074219 -10.199219 L 5.402344 -10.199219 L 5.402344 -17.511719 L 2.253906 -17.511719 Z M 2.253906 0 "/></g></g></g><g fill="#194e84" fill-opacity="1"><g transform="translate(156.551567, 28.809525)"><g><path d="M 6.953125 0.246094 C 9.035156 0.246094 10.683594 -0.484375 12.035156 -1.984375 L 9.953125 -3.804688 C 9.085938 -2.839844 8.09375 -2.492188 6.976562 -2.492188 C 5.03125 -2.492188 4.140625 -3.582031 3.878906 -5.207031 L 12.382812 -5.207031 C 12.445312 -5.378906 12.492188 -5.886719 12.492188 -6.394531 C 12.492188 -9.160156 11.09375 -12.640625 6.753906 -12.640625 C 2.566406 -12.640625 0.683594 -9.371094 0.683594 -6.148438 C 0.683594 -2.8125 2.691406 0.246094 6.953125 0.246094 Z M 3.878906 -7.386719 C 4.164062 -8.9375 4.945312 -10.101562 6.730469 -10.101562 C 8.304688 -10.101562 9.320312 -9.160156 9.519531 -7.386719 Z M 3.878906 -7.386719 "/></g></g></g><g fill="#194e84" fill-opacity="1"><g transform="translate(169.774187, 28.809525)"><g><path d="M 5.179688 0.246094 C 6.65625 0.246094 7.96875 -0.222656 9.035156 -1.773438 L 9.234375 0 L 11.726562 0 L 11.726562 -7.511719 C 11.726562 -10.535156 9.742188 -12.640625 6.371094 -12.640625 C 3.929688 -12.640625 2.355469 -11.550781 1.164062 -9.925781 L 3.484375 -8.253906 C 4.015625 -9.160156 4.96875 -10 6.394531 -10 C 7.992188 -10 8.835938 -8.960938 8.835938 -7.386719 L 5.613281 -7.386719 C 2.839844 -7.386719 0.683594 -6.496094 0.683594 -3.804688 C 0.683594 -1.214844 2.640625 0.246094 5.179688 0.246094 Z M 5.613281 -2.304688 C 4.4375 -2.304688 3.78125 -2.886719 3.78125 -3.707031 C 3.78125 -4.488281 4.414062 -5.207031 5.789062 -5.207031 L 8.835938 -5.207031 C 8.789062 -3.65625 7.335938 -2.304688 5.613281 -2.304688 Z M 5.613281 -2.304688 "/></g></g></g><g fill="#194e84" fill-opacity="1"><g transform="translate(182.922452, 28.809525)"><g><path d="M 4.3125 0.246094 C 5.03125 0.246094 5.9375 0.125 6.570312 0 L 6.570312 -2.539062 C 6.246094 -2.492188 5.910156 -2.464844 5.738281 -2.464844 C 5.132812 -2.464844 4.746094 -2.714844 4.746094 -3.296875 L 4.746094 -17.511719 L 1.722656 -17.511719 L 1.722656 -2.464844 C 1.722656 -0.285156 2.886719 0.246094 4.3125 0.246094 Z M 4.3125 0.246094 "/></g></g></g><g fill="#194e84" fill-opacity="1"><g transform="translate(190.023259, 28.809525)"><g><path d="M 6.195312 0.246094 C 7.050781 0.246094 7.96875 0.0507812 8.429688 -0.125 L 8.429688 -2.863281 C 8.019531 -2.664062 7.335938 -2.417969 6.707031 -2.417969 C 5.910156 -2.417969 5.304688 -2.765625 5.304688 -3.953125 L 5.304688 -9.851562 L 8.429688 -9.851562 L 8.429688 -12.382812 L 5.304688 -12.382812 L 5.304688 -17.613281 L 2.355469 -15.457031 L 2.355469 -12.382812 L 0.308594 -12.382812 L 0.308594 -9.851562 L 2.304688 -9.851562 L 2.304688 -3.421875 C 2.304688 -1.164062 3.753906 0.246094 6.195312 0.246094 Z M 6.195312 0.246094 "/></g></g></g><g fill="#194e84" fill-opacity="1"><g transform="translate(199.367078, 28.809525)"><g><path d="M 1.820312 0 L 4.894531 0 L 4.894531 -6.269531 C 4.894531 -8.328125 5.8125 -9.902344 7.746094 -9.902344 C 9.566406 -9.902344 9.976562 -8.578125 9.976562 -7.050781 L 9.976562 0 L 13.050781 0 L 13.050781 -7.4375 C 13.050781 -10.027344 11.726562 -12.640625 8.476562 -12.640625 C 7.261719 -12.640625 5.886719 -12.160156 4.894531 -10.945312 L 4.894531 -17.511719 L 1.820312 -17.511719 Z M 1.820312 0 "/></g></g></g><g fill="#194e84" fill-opacity="1"><g transform="translate(213.839291, 28.809525)"><g/></g></g><g fill="#5c9bd9" fill-opacity="1"><g transform="translate(85.316, 42.384415)"><g><path d="M 1.003906 0 L 2.390625 0 L 2.390625 -3.226562 L 3.441406 -3.226562 C 5.027344 -3.226562 6.191406 -4.027344 6.191406 -5.480469 C 6.191406 -6.953125 5.027344 -7.78125 3.441406 -7.78125 L 1.003906 -7.78125 Z M 2.390625 -4.535156 L 2.390625 -6.476562 L 3.441406 -6.476562 C 4.390625 -6.476562 4.804688 -6.113281 4.804688 -5.480469 C 4.804688 -4.863281 4.402344 -4.535156 3.441406 -4.535156 Z M 2.390625 -4.535156 "/></g></g></g><g fill="#5c9bd9" fill-opacity="1"><g transform="translate(92.646484, 42.384415)"><g><path d="M 1.003906 0 L 2.402344 0 L 2.402344 -3.25 L 5.8125 -3.25 L 5.8125 0 L 7.210938 0 L 7.210938 -7.78125 L 5.8125 -7.78125 L 5.8125 -4.535156 L 2.402344 -4.535156 L 2.402344 -7.78125 L 1.003906 -7.78125 Z M 1.003906 0 "/></g></g></g><g fill="#5c9bd9" fill-opacity="1"><g transform="translate(101.761612, 42.384415)"><g><path d="M 2.910156 0 L 4.367188 0 L 4.367188 -3.035156 L 7.277344 -7.78125 L 5.574219 -7.78125 L 3.617188 -4.378906 L 1.679688 -7.78125 L -0.0117188 -7.78125 L 2.910156 -3.035156 Z M 2.910156 0 "/></g></g></g><g fill="#5c9bd9" fill-opacity="1"><g transform="translate(109.929338, 42.384415)"><g><path d="M 3.226562 0.0898438 C 4.714844 0.0898438 5.933594 -0.796875 5.933594 -2.269531 C 5.933594 -4.851562 2.164062 -4.355469 2.164062 -5.820312 C 2.164062 -6.316406 2.59375 -6.652344 3.144531 -6.652344 C 3.667969 -6.652344 4.132812 -6.351562 4.402344 -5.820312 L 5.5625 -6.53125 C 5.027344 -7.480469 4.152344 -7.898438 3.195312 -7.898438 C 1.882812 -7.898438 0.765625 -7.128906 0.765625 -5.75 C 0.765625 -3.214844 4.535156 -3.757812 4.535156 -2.144531 C 4.535156 -1.59375 4.082031 -1.152344 3.25 -1.152344 C 2.421875 -1.152344 1.734375 -1.582031 1.636719 -2.550781 L 0.246094 -2.199219 C 0.496094 -0.667969 1.851562 0.0898438 3.226562 0.0898438 Z M 3.226562 0.0898438 "/></g></g></g><g fill="#5c9bd9" fill-opacity="1"><g transform="translate(117.094576, 42.384415)"><g><path d="M 1.003906 0 L 2.402344 0 L 2.402344 -7.78125 L 1.003906 -7.78125 Z M 1.003906 0 "/></g></g></g><g fill="#5c9bd9" fill-opacity="1"><g transform="translate(121.401077, 42.384415)"><g><path d="M 4.21875 0.109375 C 5.765625 0.109375 7.007812 -0.675781 7.625 -2.132812 L 6.328125 -2.660156 C 5.910156 -1.613281 5.222656 -1.21875 4.21875 -1.21875 C 2.550781 -1.21875 1.839844 -2.402344 1.839844 -3.949219 C 1.839844 -5.390625 2.550781 -6.578125 4.195312 -6.578125 C 5.210938 -6.578125 6.015625 -6.179688 6.308594 -5.15625 L 7.613281 -5.671875 C 6.984375 -7.128906 5.75 -7.910156 4.207031 -7.910156 C 1.648438 -7.910156 0.453125 -6.027344 0.453125 -3.894531 C 0.453125 -1.757812 1.65625 0.109375 4.21875 0.109375 Z M 4.21875 0.109375 "/></g></g></g><g fill="#5c9bd9" fill-opacity="1"><g transform="translate(130.191223, 42.384415)"><g><path d="M 0.0664062 0 L 1.59375 0 L 2.199219 -1.691406 L 5.222656 -1.691406 L 5.820312 0 L 7.332031 0 L 4.230469 -7.78125 L 3.183594 -7.78125 Z M 2.671875 -2.886719 L 3.710938 -5.726562 L 4.746094 -2.886719 Z M 2.671875 -2.886719 "/></g></g></g><g fill="#5c9bd9" fill-opacity="1"><g transform="translate(138.491143, 42.384415)"><g><path d="M 1.003906 0 L 2.347656 0 L 2.347656 -5.457031 L 5.605469 0 L 7.007812 0 L 7.007812 -7.78125 L 5.664062 -7.78125 L 5.664062 -2.335938 L 2.390625 -7.78125 L 1.003906 -7.78125 Z M 1.003906 0 "/></g></g></g><g fill="#5c9bd9" fill-opacity="1"><g transform="translate(147.402472, 42.384415)"><g><path d="M 3.226562 0.0898438 C 4.714844 0.0898438 5.933594 -0.796875 5.933594 -2.269531 C 5.933594 -4.851562 2.164062 -4.355469 2.164062 -5.820312 C 2.164062 -6.316406 2.59375 -6.652344 3.144531 -6.652344 C 3.667969 -6.652344 4.132812 -6.351562 4.402344 -5.820312 L 5.5625 -6.53125 C 5.027344 -7.480469 4.152344 -7.898438 3.195312 -7.898438 C 1.882812 -7.898438 0.765625 -7.128906 0.765625 -5.75 C 0.765625 -3.214844 4.535156 -3.757812 4.535156 -2.144531 C 4.535156 -1.59375 4.082031 -1.152344 3.25 -1.152344 C 2.421875 -1.152344 1.734375 -1.582031 1.636719 -2.550781 L 0.246094 -2.199219 C 0.496094 -0.667969 1.851562 0.0898438 3.226562 0.0898438 Z M 3.226562 0.0898438 "/></g></g></g></svg>