<svg xmlns="http://www.w3.org/2000/svg" viewBox="25 0 60 60" width="60" height="60">
  <defs>
    <clipPath id="icon-clip">
      <path d="M 28.570312 3.792969 L 83.09375 3.792969 L 83.09375 56.824219 L 28.570312 56.824219 Z M 28.570312 3.792969 " clip-rule="nonzero"/>
    </clipPath>
  </defs>
  <!-- Medical Cross - Top Left and Bottom Right -->
  <path fill="#3871c1" d="M 69.875 22.855469 L 61.535156 22.855469 L 61.535156 14.472656 C 61.535156 10.855469 58.621094 7.925781 55.023438 7.925781 C 51.425781 7.925781 48.511719 10.855469 48.511719 14.472656 L 48.511719 19.792969 C 48.511719 20.574219 48.566406 21.34375 48.675781 22.097656 C 51.960938 22.757812 54.984375 24.375 57.410156 26.8125 C 59.875 29.289062 61.496094 32.390625 62.132812 35.761719 C 62.929688 35.882812 63.75 35.949219 64.582031 35.949219 L 69.875 35.949219 C 73.472656 35.949219 76.386719 33.015625 76.386719 29.402344 C 76.386719 25.785156 73.472656 22.855469 69.875 22.855469 " fill-opacity="1" fill-rule="nonzero"/>
  <!-- Medical Cross - Top Right and Bottom Left -->
  <path fill="#4ac0d8" d="M 48.320312 35.949219 L 39.984375 35.949219 C 36.386719 35.949219 33.472656 33.015625 33.472656 29.402344 C 33.472656 25.785156 36.386719 22.855469 39.984375 22.855469 L 45.277344 22.855469 C 54.152344 22.855469 61.347656 30.085938 61.347656 39.007812 L 61.347656 44.328125 C 61.347656 47.945312 58.433594 50.875 54.835938 50.875 C 51.238281 50.875 48.320312 47.945312 48.320312 44.328125 L 48.320312 35.949219 " fill-opacity="1" fill-rule="nonzero"/>
  <!-- Circular Arc -->
  <g clip-path="url(#icon-clip)">
    <path fill="#1b4979" d="M 83.09375 29.433594 C 83.09375 29.433594 83.089844 29.554688 83.082031 29.78125 C 83.078125 29.835938 83.078125 29.902344 83.074219 29.972656 C 83.074219 30.007812 83.074219 30.046875 83.070312 30.082031 C 83.066406 30.128906 83.066406 30.171875 83.0625 30.222656 C 83.050781 30.414062 83.042969 30.644531 83.023438 30.894531 C 82.984375 31.378906 82.933594 31.980469 82.835938 32.679688 C 82.742188 33.378906 82.609375 34.183594 82.410156 35.070312 C 82.210938 35.957031 81.945312 36.929688 81.59375 37.960938 C 81.238281 38.996094 80.804688 40.09375 80.25 41.226562 C 79.972656 41.792969 79.667969 42.363281 79.335938 42.941406 C 79.003906 43.523438 78.636719 44.101562 78.242188 44.683594 C 78.140625 44.828125 78.046875 44.976562 77.941406 45.121094 C 77.835938 45.265625 77.730469 45.410156 77.625 45.554688 C 77.410156 45.84375 77.191406 46.136719 76.960938 46.421875 C 76.5 46.996094 76.007812 47.566406 75.484375 48.128906 C 74.429688 49.246094 73.242188 50.320312 71.925781 51.3125 C 70.609375 52.304688 69.15625 53.207031 67.59375 53.980469 C 66.03125 54.753906 64.351562 55.398438 62.589844 55.875 C 60.828125 56.347656 58.984375 56.652344 57.101562 56.761719 C 56.867188 56.773438 56.632812 56.78125 56.394531 56.792969 C 56.160156 56.800781 55.921875 56.800781 55.6875 56.808594 C 55.449219 56.808594 55.210938 56.804688 54.972656 56.800781 L 54.929688 56.800781 C 54.871094 56.800781 54.886719 56.800781 54.863281 56.800781 L 54.613281 56.789062 C 54.503906 56.789062 54.390625 56.785156 54.28125 56.78125 C 54.035156 56.765625 53.789062 56.75 53.542969 56.738281 C 53.304688 56.71875 53.066406 56.695312 52.828125 56.675781 C 52.589844 56.648438 52.347656 56.621094 52.109375 56.597656 C 51.871094 56.5625 51.632812 56.53125 51.394531 56.496094 C 49.484375 56.203125 47.585938 55.703125 45.753906 54.996094 C 43.917969 54.289062 42.15625 53.367188 40.511719 52.269531 C 38.867188 51.171875 37.34375 49.882812 35.972656 48.453125 C 34.613281 47.019531 33.402344 45.441406 32.390625 43.757812 C 31.382812 42.070312 30.554688 40.289062 29.945312 38.453125 C 29.332031 36.617188 28.925781 34.734375 28.722656 32.855469 C 28.621094 31.917969 28.570312 30.980469 28.570312 30.050781 C 28.570312 29.816406 28.574219 29.582031 28.578125 29.347656 C 28.585938 29.121094 28.589844 28.902344 28.601562 28.675781 C 28.617188 28.441406 28.628906 28.207031 28.644531 27.976562 C 28.664062 27.75 28.683594 27.519531 28.703125 27.292969 C 28.886719 25.476562 29.253906 23.714844 29.777344 22.046875 C 30.296875 20.375 30.976562 18.800781 31.769531 17.34375 C 32.5625 15.890625 33.464844 14.550781 34.445312 13.347656 C 35.425781 12.144531 36.476562 11.074219 37.554688 10.128906 C 38.09375 9.660156 38.644531 9.222656 39.191406 8.816406 C 39.464844 8.613281 39.746094 8.421875 40.019531 8.230469 C 40.15625 8.136719 40.296875 8.046875 40.433594 7.953125 C 40.570312 7.863281 40.710938 7.777344 40.847656 7.691406 C 41.398438 7.347656 41.945312 7.03125 42.492188 6.746094 C 43.035156 6.460938 43.570312 6.199219 44.101562 5.96875 C 45.15625 5.5 46.175781 5.140625 47.128906 4.859375 C 48.085938 4.574219 48.976562 4.371094 49.785156 4.222656 C 50.597656 4.074219 51.328125 3.984375 51.964844 3.925781 C 52.597656 3.863281 53.140625 3.84375 53.582031 3.824219 C 53.800781 3.820312 53.996094 3.816406 54.164062 3.816406 C 54.332031 3.8125 54.472656 3.816406 54.585938 3.816406 C 54.8125 3.820312 54.929688 3.820312 54.929688 3.820312 C 54.929688 3.820312 54.8125 3.824219 54.585938 3.832031 C 54.472656 3.839844 54.332031 3.839844 54.164062 3.851562 C 53.996094 3.859375 53.804688 3.871094 53.585938 3.886719 C 53.148438 3.921875 52.609375 3.96875 51.980469 4.058594 C 51.351562 4.148438 50.628906 4.269531 49.832031 4.453125 C 49.039062 4.636719 48.164062 4.875 47.238281 5.199219 C 46.3125 5.523438 45.324219 5.917969 44.3125 6.425781 C 43.804688 6.675781 43.289062 6.953125 42.773438 7.257812 C 42.253906 7.558594 41.734375 7.894531 41.210938 8.253906 C 41.082031 8.34375 40.949219 8.433594 40.820312 8.527344 C 40.691406 8.621094 40.5625 8.714844 40.429688 8.8125 C 40.171875 9.007812 39.910156 9.207031 39.652344 9.417969 C 39.136719 9.835938 38.625 10.285156 38.125 10.761719 C 37.125 11.722656 36.160156 12.800781 35.273438 13.996094 C 34.382812 15.191406 33.578125 16.507812 32.886719 17.925781 C 32.195312 19.34375 31.625 20.867188 31.203125 22.460938 C 30.78125 24.054688 30.511719 25.726562 30.417969 27.429688 C 30.40625 27.644531 30.402344 27.855469 30.390625 28.070312 C 30.386719 28.285156 30.386719 28.492188 30.378906 28.703125 C 30.378906 28.921875 30.382812 29.148438 30.386719 29.371094 C 30.394531 29.582031 30.402344 29.796875 30.410156 30.007812 C 30.449219 30.871094 30.535156 31.738281 30.667969 32.601562 C 30.933594 34.332031 31.386719 36.046875 32.023438 37.699219 C 32.65625 39.355469 33.484375 40.945312 34.46875 42.429688 C 35.457031 43.914062 36.613281 45.289062 37.894531 46.523438 C 39.183594 47.75 40.597656 48.839844 42.105469 49.75 C 43.613281 50.660156 45.207031 51.402344 46.84375 51.949219 C 48.484375 52.496094 50.164062 52.855469 51.839844 53.035156 C 52.050781 53.058594 52.261719 53.074219 52.46875 53.09375 C 52.679688 53.109375 52.886719 53.121094 53.097656 53.136719 C 53.304688 53.144531 53.515625 53.152344 53.722656 53.160156 C 53.921875 53.164062 54.125 53.164062 54.324219 53.167969 C 54.4375 53.167969 54.546875 53.164062 54.660156 53.164062 L 54.828125 53.164062 L 54.910156 53.160156 C 54.914062 53.160156 54.960938 53.160156 54.929688 53.160156 L 54.96875 53.160156 C 55.175781 53.152344 55.378906 53.144531 55.585938 53.136719 C 55.792969 53.121094 55.996094 53.109375 56.199219 53.09375 C 56.40625 53.078125 56.609375 53.0625 56.8125 53.039062 C 58.433594 52.871094 60.003906 52.535156 61.488281 52.0625 C 62.976562 51.585938 64.375 50.976562 65.671875 50.257812 C 66.96875 49.539062 68.15625 48.722656 69.226562 47.835938 C 70.296875 46.953125 71.25 46.003906 72.085938 45.03125 C 72.503906 44.542969 72.890625 44.050781 73.253906 43.554688 C 73.4375 43.308594 73.605469 43.054688 73.773438 42.808594 C 73.855469 42.683594 73.9375 42.558594 74.019531 42.4375 C 74.097656 42.3125 74.171875 42.1875 74.25 42.0625 C 74.554688 41.566406 74.839844 41.074219 75.089844 40.582031 C 75.339844 40.09375 75.574219 39.609375 75.777344 39.132812 C 76.191406 38.183594 76.507812 37.265625 76.757812 36.410156 C 77.007812 35.550781 77.1875 34.75 77.316406 34.023438 C 77.445312 33.296875 77.519531 32.640625 77.574219 32.066406 C 77.628906 31.496094 77.644531 31.007812 77.660156 30.613281 C 77.660156 30.425781 77.664062 30.261719 77.667969 30.117188 C 77.667969 30.082031 77.667969 30.046875 77.667969 30.015625 C 77.667969 29.976562 77.667969 29.9375 77.667969 29.902344 C 77.664062 29.832031 77.664062 29.769531 77.664062 29.710938 C 77.660156 29.484375 77.660156 29.367188 77.660156 29.367188 C 77.644531 27.859375 78.851562 26.621094 80.351562 26.609375 C 81.851562 26.59375 83.078125 27.804688 83.09375 29.3125 C 83.09375 29.351562 83.09375 29.398438 83.09375 29.433594 " fill-opacity="1" fill-rule="nonzero"/>
  </g>
</svg>

